<svg id="Group_421" data-name="Group 421" xmlns="http://www.w3.org/2000/svg" width="138" height="36.221" viewBox="0 0 138 36.221">
  <path id="Path_28" data-name="Path 28" d="M17.026,5.3h6.411V32.583H16.819L6.467,16.217H6.392V32.564H0V5.3H6.43L16.951,22.062h.075V5.3Z" transform="translate(0 -4.301)" fill="#080000"/>
  <path id="Path_29" data-name="Path 29" d="M157.393,57.978a14.864,14.864,0,0,1-.151,1.772H144.458A3.74,3.74,0,0,0,146,62.145a4.974,4.974,0,0,0,2.9.848,5.881,5.881,0,0,0,4.563-2.263l3.186,3.582a9.158,9.158,0,0,1-3.432,2.6,11.758,11.758,0,0,1-4.959.98,10.509,10.509,0,0,1-3.865-.716,9.15,9.15,0,0,1-3.111-1.98,8.842,8.842,0,0,1-2.036-3.092,10.213,10.213,0,0,1-.754-3.96,10.737,10.737,0,0,1,.716-3.922,9.169,9.169,0,0,1,1.98-3.092,8.694,8.694,0,0,1,3.036-2,9.862,9.862,0,0,1,3.809-.735,9.689,9.689,0,0,1,4.846,1.226,8.385,8.385,0,0,1,3.318,3.413A10.182,10.182,0,0,1,157.393,57.978Zm-9.3-4.77a3.69,3.69,0,0,0-2.357.773,3.649,3.649,0,0,0-1.263,2.206l7.033-.038a4.607,4.607,0,0,0-.66-1.584,3.061,3.061,0,0,0-1.169-1.018A3.556,3.556,0,0,0,148.1,53.208Z" transform="translate(-112.386 -39.274)" fill="#080000"/>
  <path id="Path_30" data-name="Path 30" d="M249.159,69.08l-3.149-4.657h-.094L242.73,69.08H236.3l6.3-9.691-6.2-9.088h6.75l2.753,4.638h.094L248.8,50.3h6.712l-6.222,9.107,6.354,9.673Z" transform="translate(-191.746 -40.816)" fill="#080000"/>
  <path id="Path_31" data-name="Path 31" d="M346.736,40.875a5.214,5.214,0,0,1-4.016-1.6,6.576,6.576,0,0,1-1.508-4.676V26.639H339.1v-4.9h2.112v-6l6-.641v6.637h4.563v4.9h-4.563V33.5a3.333,3.333,0,0,0,.3,1.584,1.164,1.164,0,0,0,1.112.566,3.9,3.9,0,0,0,1.848-.471l1.49,4.431a9.627,9.627,0,0,1-2.3.962A11.394,11.394,0,0,1,346.736,40.875Z" transform="translate(-275.163 -12.253)" fill="#080000"/>
  <path id="Path_32" data-name="Path 32" d="M400.1,36.707a12.463,12.463,0,0,1-4.3-.7l1-4.77a3.884,3.884,0,0,0,1.622.358,1.342,1.342,0,0,0,1.244-.585,3.555,3.555,0,0,0,.358-1.829V9.971h6V29.693a7.834,7.834,0,0,1-1.527,5.242A5.446,5.446,0,0,1,400.1,36.707Zm5.543-30.093a4.146,4.146,0,0,1-5.355,0,3.264,3.264,0,0,1-1.075-2.527,3.252,3.252,0,0,1,1.075-2.508,4.146,4.146,0,0,1,5.355,0,3.252,3.252,0,0,1,1.075,2.508A3.292,3.292,0,0,1,405.642,6.615Z" transform="translate(-321.172 -0.487)" fill="#080000"/>
  <path id="Path_33" data-name="Path 33" d="M471.744,68a11.724,11.724,0,0,1-4.129-.716,9.621,9.621,0,0,1-3.224-2,8.8,8.8,0,0,1-2.055-3.092,10.826,10.826,0,0,1,0-7.844,9.062,9.062,0,0,1,2.055-3.092,9.661,9.661,0,0,1,3.224-2.017,11.318,11.318,0,0,1,4.129-.735,11.03,11.03,0,0,1,5.242,1.226,8.776,8.776,0,0,1,3.582,3.45,10.673,10.673,0,0,1,0,10.144,8.772,8.772,0,0,1-3.582,3.45A10.814,10.814,0,0,1,471.744,68Zm0-5.336a3.851,3.851,0,0,0,2.9-1.244,4.932,4.932,0,0,0,.019-6.354,3.856,3.856,0,0,0-2.923-1.226A3.79,3.79,0,0,0,468.8,55.08a4.541,4.541,0,0,0-1.15,3.168,4.455,4.455,0,0,0,1.169,3.149A3.786,3.786,0,0,0,471.744,62.66Z" transform="translate(-374.565 -39.355)" fill="#080000"/>
  <path id="Path_34" data-name="Path 34" d="M592.545,9.126a8.149,8.149,0,0,1,3.375.716,8.467,8.467,0,0,1,2.734,2,9.3,9.3,0,0,1,1.791,3.111,11.679,11.679,0,0,1,.66,3.941,9.99,9.99,0,0,1-2.489,7.033,8.289,8.289,0,0,1-6.373,2.7,6.416,6.416,0,0,1-5.355-2.376h-.094v2.017H581.1V0h6.015V11.483h.094A6.777,6.777,0,0,1,592.545,9.126Zm-1.527,14.217a3.774,3.774,0,0,0,2.885-1.226,4.528,4.528,0,0,0,1.131-3.205,4.534,4.534,0,0,0-1.15-3.224A3.726,3.726,0,0,0,591,14.443a3.81,3.81,0,0,0-2.96,1.263,4.531,4.531,0,0,0-1.169,3.205,5.066,5.066,0,0,0,.321,1.81,4.17,4.17,0,0,0,.867,1.4,4.242,4.242,0,0,0,2.96,1.226Z" transform="translate(-471.533)" fill="#080000"/>
  <path id="Path_35" data-name="Path 35" d="M697.682,121.714a3.444,3.444,0,0,1-2.526-1.037,3.378,3.378,0,0,1-1.056-2.489,3.326,3.326,0,0,1,1.056-2.451,3.519,3.519,0,0,1,2.526-1.037,3.39,3.39,0,0,1,2.489,1.037,3.438,3.438,0,0,1,.019,4.94A3.432,3.432,0,0,1,697.682,121.714Z" transform="translate(-563.227 -93.073)" fill="#080000"/>
</svg>
